IKResults
version=1
nRows=58
nColumns=5
inDegrees=yes

Units are S.I. units (second, meters, Newtons, ...)
If the header above contains a line with 'inDegrees', this indicates whether rotational values are in degrees (yes) or radians (no).

endheader
time	r_shoulder_elev	r_shoulder_side	r_elbow_flex	r_elbow_rotation
      6.53330000	     88.16215730	     -4.72299259	     -1.57070838	     13.92318671
      6.55000000	     88.02148089	     -4.63278807	      2.15335248	      9.14516885
      6.56670000	     87.80424779	     -4.61317107	      3.76085272	      9.85935330
      6.58330000	     87.53885937	     -4.53509290	      8.86371097	      3.50927888
      6.60000000	     87.21150487	     -4.51949565	     10.80280663	      4.39666985
      6.61670000	     86.88449479	     -4.52367229	     12.72947519	      5.27301868
      6.63330000	     86.55015578	     -4.52581475	     14.71723151	      6.16647807
      6.65000000	     86.19490533	     -4.50210079	     18.64042919	      3.45737157
      6.66670000	     85.81996054	     -4.46380390	     21.15257211	      4.60397923
      6.68330000	     85.43835993	     -4.44326144	     23.71129116	      5.76199058
      6.70000000	     85.10898590	     -4.45860070	     26.02384437	      6.80075299
      6.71670000	     84.81061992	     -4.51566745	     28.03994452	      7.69104533
      6.73330000	     84.53306219	     -4.56917685	     32.14944372	      3.45671182
      6.75000000	     84.26290738	     -4.62393509	     33.86438490	      4.24093782
      6.76670000	     83.95977301	     -4.60155278	     35.64696304	      5.04109754
      6.78330000	     83.58712264	     -4.47485776	     38.75465082	      3.48464331
      6.80000000	     83.16709947	     -4.24501809	     40.88759070	      4.45536169
      6.81670000	     82.77997758	     -3.94951360	     43.89492424	      3.45838082
      6.83330000	     82.41516515	     -3.67370093	     46.02876314	      4.42946963
      6.85000000	     82.10312841	     -3.44427168	     48.15833739	      5.37887752
      6.86670000	     81.79872368	     -3.25738666	     51.80550173	      3.47833140
      6.88330000	     81.50489238	     -3.11645646	     54.31698389	      4.62585203
      6.90000000	     81.22025699	     -3.01366929	     56.88435841	      5.79650467
      6.91670000	     80.97280195	     -2.96707619	     59.38546833	      6.94414436
      6.93330000	     80.66591459	     -3.11829981	     58.26221384	     15.95971578
      6.95000000	     80.38606288	     -3.10723822	     60.68790926	     17.03564832
      6.96670000	     80.04257747	     -3.17388365	     61.88336287	     21.02813843
      6.98330000	     79.68210984	     -3.18744527	     62.96063084	     25.26854145
      7.00000000	     79.37766230	     -3.19264381	     63.26756292	     30.44094928
      7.01670000	     79.16662035	     -3.18164311	     63.39308912	     35.22730029
      7.03330000	     78.99202114	     -3.19331359	     63.54624960	     39.55218909
      7.05000000	     78.86686671	     -3.23502284	     64.06599321	     43.27642732
      7.06670000	     78.76718202	     -3.30387915	     64.87840920	     46.63099819
      7.08330000	     78.71807728	     -3.39498288	     65.86539181	     49.51337417
      7.10000000	     78.68380320	     -3.46280748	     66.92764476	     51.63756003
      7.11670000	     78.66212098	     -3.49877367	     67.99600706	     52.97876122
      7.13330000	     78.60799985	     -3.51068546	     69.04679042	     54.04612422
      7.15000000	     78.51910931	     -3.48819161	     70.29308840	     54.80148528
      7.16670000	     78.43291246	     -3.46766037	     71.72523650	     55.59142807
      7.18330000	     78.35641446	     -3.43780005	     73.41265664	     56.04895337
      7.20000000	     78.33078091	     -3.41430216	     75.11555092	     56.63507326
      7.21670000	     78.34039982	     -3.39830319	     76.69706927	     57.17385431
      7.23330000	     78.36371654	     -3.35991965	     78.00543942	     57.73197479
      7.25000000	     78.37110060	     -3.32127016	     79.12580190	     58.61035540
      7.26670000	     78.34101749	     -3.30902995	     80.17432605	     59.68605940
      7.28330000	     78.28906425	     -3.30169838	     81.33811616	     60.74661516
      7.30000000	     78.20133823	     -3.34135497	     82.52646117	     61.97052939
      7.31670000	     78.11718625	     -3.38285607	     83.80850280	     62.84806473
      7.33330000	     78.00285943	     -3.44862829	     85.15059664	     63.47645331
      7.35000000	     77.89763772	     -3.49469495	     86.62220669	     63.69188574
      7.36670000	     77.77759476	     -3.51315163	     88.08901320	     63.82754416
      7.38330000	     77.65635856	     -3.50028272	     89.44246406	     64.12913309
      7.40000000	     77.49947199	     -3.49069664	     90.49592660	     64.65000870
      7.41670000	     77.34289635	     -3.45200342	     91.29385638	     65.45922756
      7.43330000	     77.20255844	     -3.42758311	     91.92475579	     66.49952461
      7.45000000	     77.07698143	     -3.42259097	     92.56372720	     67.67425609
      7.46670000	     76.98873531	     -3.42573247	     93.24374719	     68.85299336
      7.48330000	     76.91327077	     -3.45055761	     93.94201300	     69.86443537
